<svg xmlns="http://www.w3.org/2000/svg" id="Layer_1" viewBox="0 0 372.96 80.53"><defs><style>.cls-1{fill:#fff;}</style></defs><path class="cls-1" d="M52.92,54.22H0v-.79c3.31-.94,5.4-2.09,5.4-5.9V8.06C5.4,3.53,3.67,2.59,0,1.51v-.86h20.52v.86c-3.53,1.01-5.54,2.16-5.54,6.55v39.17c0,2.3,1.3,2.95,3.31,2.95h25.06c4.9,0,9.22-3.02,11.52-7.56h.86l-2.81,11.59Z"></path><path class="cls-1" d="M126,38.88h-36.43l-4.9,8.06c-.5.86-.72,1.58-.72,2.23,0,2.38,2.88,3.46,5.62,4.25v.79h-20.67v-.79c2.45-.65,6.12-1.44,10.73-8.64L104.33,4.46l-.14-.22c-1.37-1.73-3.53-2.38-5.9-2.74v-.86h15.62l27.79,45.8c3.1,5.11,6.48,6.26,8.93,6.98v.79h-25.2v-.79c3.82-1.08,7.63-2.74,5.69-5.98l-5.11-8.57ZM92.45,34.13h30.75l-15.19-25.71-15.55,25.71Z"></path><path class="cls-1" d="M190.51.65v.86c-3.53,1.01-5.54,2.16-5.54,6.55v39.6c0,3.67,2.02,4.82,5.54,5.76v.79h-20.52v-.79c3.31-.94,5.4-2.02,5.4-5.76V8.06c0-4.54-1.73-5.47-5.4-6.55v-.86h20.52Z"></path><path class="cls-1" d="M284.69,55.8h-.94l-55.23-46.8v38.45c0,3.96,1.94,5.04,5.26,5.98v.79h-16.06v-.79c3.31-.86,5.33-2.02,5.33-5.98V7.13c0-3.6-2.16-4.68-5.33-5.62v-.86h14.83l46.8,40.18V7.42c0-3.89-2.16-4.97-5.4-5.9v-.86h15.99v.86c-3.31.94-5.26,2.02-5.26,5.9v48.39Z"></path><path class="cls-1" d="M330.48,4.82v19.87h22.9c3.67,0,5.04-2.3,5.9-5.69h.86l-1.3,15.12h-.86c-.29-2.16-1.3-5.26-5.62-5.26h-21.89v18.36c0,2.02,1.08,2.95,2.95,2.95h28.01c5.98,0,8.93-4.46,10.66-7.56h.86l-3.02,11.59h-54.8v-.79c3.6-1.01,5.4-2.16,5.4-6.48V8.06c0-4.54-1.8-5.54-5.4-6.55v-.86h50.26c1.66.07,3.31.29,4.68-.65h.79l-1.44,11.59h-.79c-.22-2.16-.94-6.77-4.97-6.77h-33.2Z"></path><path class="cls-1" d="M32.99,69.46c0-.28.14-.42.41-.42h1.94c.15,0,.26.03.33.1s.1.17.1.32v3.55c0,.09.02.15.05.19s.1.05.2.05h3.7c.09,0,.16-.02.2-.05s.06-.1.06-.19v-3.55c0-.28.14-.42.41-.42h1.94c.29,0,.43.14.43.42v10.37c0,.28-.14.41-.43.41h-1.94c-.28,0-.41-.14-.41-.41v-3.78c0-.09-.02-.15-.06-.18s-.11-.05-.2-.05h-3.7c-.1,0-.16.02-.2.05s-.05.09-.05.18v3.78c0,.15-.03.25-.1.32s-.18.1-.33.1h-1.94c-.28,0-.41-.14-.41-.41v-10.37Z"></path><path class="cls-1" d="M58.09,69.58c.92.5,1.64,1.2,2.15,2.09s.76,1.88.76,2.97c0,1.7-.57,3.09-1.71,4.18s-2.58,1.63-4.32,1.63-3.15-.54-4.27-1.63c-1.12-1.09-1.68-2.47-1.68-4.15s.56-3.08,1.7-4.18c1.13-1.1,2.56-1.65,4.29-1.65,1.13,0,2.17.25,3.09.75ZM57.23,72.3c-.59-.6-1.33-.91-2.23-.91s-1.64.3-2.23.91c-.59.6-.88,1.39-.88,2.36s.29,1.73.87,2.33,1.32.9,2.23.9,1.63-.3,2.23-.91.9-1.38.9-2.33-.3-1.75-.89-2.36Z"></path><path class="cls-1" d="M67.28,69.49c0-.19.03-.34.09-.45s.16-.16.29-.16c.1,0,.21.04.31.12s.23.2.38.36l4.61,4.99,4.59-4.99c.15-.17.28-.29.38-.36s.2-.11.31-.11c.14,0,.23.05.3.16s.09.26.09.45v10.34c0,.28-.14.41-.42.41h-1.93c-.29,0-.44-.14-.44-.41v-4.84l-2.29,2.61c-.14.16-.25.27-.34.34s-.17.09-.26.09c-.08,0-.17-.03-.25-.09s-.2-.17-.34-.34l-2.29-2.61v4.84c0,.15-.03.25-.1.32s-.18.1-.33.1h-1.94c-.28,0-.41-.14-.41-.41v-10.34Z"></path><path class="cls-1" d="M85.5,69.46c0-.28.14-.42.41-.42h6.72c.29,0,.43.14.43.42v1.73c0,.15-.04.26-.11.32s-.18.09-.32.09h-4.11c-.1,0-.16.02-.2.05s-.05.1-.05.19v1.25c0,.09.02.16.05.19s.1.05.2.05h3.58c.28,0,.42.15.42.44v1.71c0,.28-.14.41-.42.41h-3.58c-.1,0-.16.02-.2.05s-.05.1-.05.19v1.31c0,.09.02.15.05.18s.1.05.2.05h4.12c.15,0,.25.03.32.1s.11.17.11.32v1.73c0,.28-.14.41-.43.41h-6.73c-.28,0-.41-.14-.41-.41v-10.37Z"></path><path class="cls-1" d="M99.82,77.04c.05-.08.1-.14.16-.18s.1-.06.16-.06c.1,0,.24.08.43.23s.52.34,1.02.56,1.03.33,1.61.33c.53,0,.93-.08,1.19-.25s.39-.39.39-.66c0-.29-.15-.51-.45-.67s-.83-.32-1.58-.5-1.39-.41-1.9-.69-.91-.64-1.19-1.08-.41-.99-.41-1.65c0-1.1.39-1.98,1.16-2.62s1.81-.96,3.11-.96c1.08,0,2.03.23,2.86.69s1.25.79,1.26.99c0,.1-.04.21-.12.34l-.87,1.38c-.05.07-.1.13-.15.16s-.11.05-.15.05c-.09,0-.21-.05-.36-.16s-.37-.25-.69-.42-.62-.3-.9-.38-.59-.12-.9-.12c-.44,0-.78.08-1.02.25s-.36.38-.36.65c0,.45.41.77,1.22.96s1.54.41,2.19.67,1.16.63,1.55,1.11.57,1.09.57,1.84c0,1.11-.4,1.99-1.21,2.64s-1.89.98-3.25.98c-1.13,0-2.13-.23-3.01-.68s-1.32-.81-1.32-1.05c0-.1.04-.22.13-.35l.84-1.33Z"></path><path class="cls-1" d="M127.23,69.65c.14-.28.27-.49.39-.63s.28-.21.46-.21c.15,0,.29.06.41.18s.27.34.43.66l5.01,10.06c.06.12.09.22.09.3,0,.08-.03.14-.1.18s-.16.06-.27.06h-2.03c-.21,0-.35-.02-.44-.07s-.17-.16-.25-.34l-.62-1.33c-.04-.09-.08-.15-.12-.17s-.1-.04-.19-.04h-3.96c-.09,0-.15.01-.19.04s-.08.08-.12.17l-.61,1.33c-.08.18-.17.29-.25.34s-.22.07-.42.07h-1.95c-.11,0-.21-.02-.27-.06s-.1-.1-.1-.18c0-.07.03-.17.09-.29l5.01-10.06ZM128.92,76c.12,0,.19-.04.19-.11,0-.04-.01-.08-.04-.12l-1.05-2.21-1.04,2.21c-.03.05-.04.09-.04.12,0,.07.06.11.17.11h1.8Z"></path><path class="cls-1" d="M139.63,69.46c0-.2.03-.36.09-.46.06-.11.16-.16.29-.16.11,0,.22.04.35.12.12.08.28.21.48.4l5.77,5.41v-5.31c0-.28.14-.42.41-.42h1.94c.29,0,.43.14.43.42v10.37c0,.2-.03.35-.09.46-.06.11-.16.16-.29.16-.12,0-.23-.04-.36-.12-.12-.08-.28-.22-.48-.41l-5.76-5.41v5.31c0,.15-.03.25-.1.32-.07.07-.18.1-.33.1h-1.94c-.28,0-.41-.14-.41-.41v-10.37Z"></path><path class="cls-1" d="M156.59,69.46c0-.28.14-.42.41-.42h3.94c1.91,0,3.4.49,4.49,1.47s1.63,2.32,1.63,4.01-.57,3.16-1.7,4.18-2.7,1.54-4.7,1.54h-3.66c-.28,0-.41-.14-.41-.41v-10.37ZM160.65,77.68c1.14,0,2.01-.27,2.62-.8s.91-1.3.91-2.29c0-.94-.31-1.67-.92-2.2s-1.46-.79-2.55-.79h-1.1c-.1,0-.16.02-.2.05s-.05.1-.05.19v5.6c0,.09.02.15.05.18s.1.05.2.05h1.04Z"></path><path class="cls-1" d="M181.67,69.55c-.06-.11-.09-.21-.09-.28,0-.08.03-.14.1-.18s.16-.06.27-.06h2.05c.2,0,.35.04.45.11s.2.21.3.41l2.84,5.82,2.8-5.82c.1-.21.2-.35.31-.42s.26-.1.46-.1h1.95c.11,0,.2.02.27.06s.1.09.1.17-.03.17-.09.29l-5.1,10.16c-.15.31-.28.52-.39.64s-.22.18-.35.18c-.11,0-.22-.05-.32-.14s-.24-.32-.43-.68l-5.13-10.16Z"></path><path class="cls-1" d="M198.76,69.46c0-.28.14-.42.41-.42h1.94c.15,0,.26.03.33.1s.1.17.1.32v10.37c0,.15-.03.25-.1.32s-.18.1-.33.1h-1.94c-.28,0-.41-.14-.41-.41v-10.37Z"></path><path class="cls-1" d="M208.75,69.46c0-.28.14-.42.41-.42h1.94c.15,0,.26.03.33.1s.1.17.1.32v7.98c0,.09.02.15.05.18s.1.05.2.05h4.11c.28,0,.41.14.41.42v1.73c0,.28-.14.41-.41.41h-6.72c-.28,0-.41-.14-.41-.41v-10.37Z"></path><path class="cls-1" d="M222.7,69.46c0-.28.14-.42.41-.42h1.94c.15,0,.26.03.33.1s.1.17.1.32v7.98c0,.09.02.15.05.18s.1.05.2.05h4.11c.28,0,.41.14.41.42v1.73c0,.28-.14.41-.41.41h-6.72c-.28,0-.41-.14-.41-.41v-10.37Z"></path><path class="cls-1" d="M239.82,69.65c.14-.28.27-.49.39-.63s.28-.21.46-.21c.15,0,.29.06.41.18s.27.34.43.66l5.01,10.06c.06.12.09.22.09.3,0,.08-.03.14-.1.18s-.16.06-.27.06h-2.03c-.21,0-.35-.02-.44-.07s-.17-.16-.25-.34l-.62-1.33c-.04-.09-.08-.15-.12-.17s-.1-.04-.19-.04h-3.96c-.09,0-.15.01-.19.04s-.08.08-.12.17l-.61,1.33c-.08.18-.17.29-.25.34s-.22.07-.42.07h-1.95c-.11,0-.21-.02-.27-.06s-.1-.1-.1-.18c0-.07.03-.17.09-.29l5.01-10.06ZM241.52,76c.12,0,.19-.04.19-.11,0-.04-.01-.08-.04-.12l-1.05-2.21-1.04,2.21c-.03.05-.04.09-.04.12,0,.07.06.11.17.11h1.8Z"></path><path class="cls-1" d="M251.68,77.04c.05-.08.1-.14.16-.18s.1-.06.16-.06c.1,0,.24.08.43.23s.52.34,1.02.56,1.03.33,1.61.33c.53,0,.93-.08,1.19-.25s.39-.39.39-.66c0-.29-.15-.51-.45-.67s-.83-.32-1.58-.5-1.39-.41-1.9-.69-.91-.64-1.19-1.08-.41-.99-.41-1.65c0-1.1.39-1.98,1.16-2.62s1.81-.96,3.11-.96c1.08,0,2.03.23,2.86.69s1.25.79,1.26.99c0,.1-.04.21-.12.34l-.87,1.38c-.05.07-.1.13-.15.16s-.11.05-.15.05c-.09,0-.21-.05-.36-.16s-.37-.25-.69-.42-.62-.3-.9-.38-.59-.12-.9-.12c-.44,0-.78.08-1.02.25s-.36.38-.36.65c0,.45.41.77,1.22.96s1.54.41,2.19.67,1.16.63,1.55,1.11.57,1.09.57,1.84c0,1.11-.4,1.99-1.21,2.64s-1.89.98-3.25.98c-1.13,0-2.13-.23-3.01-.68s-1.32-.81-1.32-1.05c0-.1.04-.22.13-.35l.84-1.33Z"></path><path class="cls-1" d="M275.28,77.04c.05-.08.1-.14.16-.18s.1-.06.16-.06c.1,0,.24.08.43.23s.52.34,1.02.56,1.03.33,1.61.33c.53,0,.93-.08,1.19-.25s.39-.39.39-.66c0-.29-.15-.51-.45-.67s-.83-.32-1.58-.5-1.39-.41-1.9-.69-.91-.64-1.19-1.08-.41-.99-.41-1.65c0-1.1.39-1.98,1.16-2.62s1.81-.96,3.11-.96c1.08,0,2.03.23,2.86.69s1.25.79,1.26.99c0,.1-.04.21-.12.34l-.87,1.38c-.05.07-.1.13-.15.16s-.11.05-.15.05c-.09,0-.21-.05-.36-.16s-.37-.25-.69-.42-.62-.3-.9-.38-.59-.12-.9-.12c-.44,0-.78.08-1.02.25s-.36.38-.36.65c0,.45.41.77,1.22.96s1.54.41,2.19.67,1.16.63,1.55,1.11.57,1.09.57,1.84c0,1.11-.4,1.99-1.21,2.64s-1.89.98-3.25.98c-1.13,0-2.13-.23-3.01-.68s-1.32-.81-1.32-1.05c0-.1.04-.22.13-.35l.84-1.33Z"></path><path class="cls-1" d="M289.35,69.46c0-.28.14-.42.41-.42h3.76c1.65,0,2.89.33,3.71,1s1.23,1.68,1.23,3.05-.43,2.37-1.29,3.08-2.11,1.06-3.77,1.06h-1.04c-.1,0-.16.02-.2.05s-.05.1-.05.19v2.35c0,.15-.03.25-.1.32s-.18.1-.33.1h-1.94c-.28,0-.41-.14-.41-.41v-10.37ZM293.41,74.67c.71,0,1.25-.13,1.62-.39s.55-.65.55-1.18-.18-.92-.53-1.16-.9-.35-1.64-.35h-1.04c-.1,0-.16.02-.2.05s-.05.1-.05.19v2.59c0,.09.02.15.05.18s.1.05.2.05h1.04Z"></path><path class="cls-1" d="M307.1,69.65c.14-.28.27-.49.39-.63s.28-.21.46-.21c.15,0,.29.06.41.18s.27.34.43.66l5.01,10.06c.06.12.09.22.09.3,0,.08-.03.14-.1.18s-.16.06-.27.06h-2.03c-.21,0-.35-.02-.44-.07s-.17-.16-.25-.34l-.62-1.33c-.04-.09-.08-.15-.12-.17s-.1-.04-.19-.04h-3.96c-.09,0-.15.01-.19.04s-.08.08-.12.17l-.61,1.33c-.08.18-.17.29-.25.34s-.22.07-.42.07h-1.95c-.11,0-.21-.02-.27-.06s-.1-.1-.1-.18c0-.07.03-.17.09-.29l5.01-10.06ZM308.8,76c.12,0,.19-.04.19-.11,0-.04-.01-.08-.04-.12l-1.05-2.21-1.04,2.21c-.03.05-.04.09-.04.12,0,.07.06.11.17.11h1.8Z"></path><path class="cls-1" d="M319.18,69.46c0-.28.14-.42.41-.42h1.94c.15,0,.26.03.33.1s.1.17.1.32v10.37c0,.15-.03.25-.1.32s-.18.1-.33.1h-1.94c-.28,0-.41-.14-.41-.41v-10.37Z"></path><path class="cls-1" d="M328.85,69.46c0-.2.03-.36.09-.46s.16-.16.29-.16c.11,0,.23.04.35.12s.28.21.48.4l5.77,5.41v-5.31c0-.28.14-.42.41-.42h1.94c.29,0,.43.14.43.42v10.37c0,.2-.03.35-.09.46s-.16.16-.29.16c-.11,0-.23-.04-.36-.12s-.28-.22-.48-.41l-5.76-5.41v5.31c0,.15-.03.25-.1.32s-.18.1-.33.1h-1.94c-.28,0-.41-.14-.41-.41v-10.37Z"></path></svg>